<mxfile host="app.diagrams.net" modified="2023-10-17T10:30:05.799Z" agent="Mozilla/5.0 (Windows NT 10.0; Win64; x64) AppleWebKit/537.36 (KHTML, like Gecko) Chrome/118.0.0.0 Safari/537.36" version="22.0.4" etag="01NFLP-2PCPltbN896FK" type="github">
  <diagram name="Sayfa -1" id="jUSrTd17zzFfF8ueEH1I">
    <mxGraphModel>
      <root>
        <mxCell id="0" />
        <mxCell id="1" parent="0" />
      </root>
    </mxGraphModel>
  </diagram>
</mxfile>
